<svg xmlns="http://www.w3.org/2000/svg" width="1562" height="214" viewBox="0 0 1562 214" font-family="Segoe UI, system-ui, sans-serif">
<rect x="0" y="0" width="1562" height="214" fill="#ffffff"/>
<defs><marker id="arrow" markerWidth="9" markerHeight="9" refX="7" refY="3" orient="auto" markerUnits="strokeWidth"><path d="M0,0 L7,3 L0,6 Z" fill="#1e293b"/></marker></defs>
<rect x="24" y="70.0" width="190" height="104" rx="10" fill="#cfe2f3" stroke="#3d85c6" stroke-width="2"/>
<text x="119.0" y="98.0" text-anchor="middle" font-size="15.5" font-weight="700" fill="#1e293b">Postgres (ecommerce)</text>
<line x1="34" y1="106.0" x2="204" y2="106.0" stroke="#3d85c6" stroke-width="1" opacity="0.5"/>
<text x="37" y="126.0" font-size="13.5" fill="#1e293b" font-weight="400">wal_level = logical</text>
<text x="37" y="147.0" font-size="13.5" fill="#1e293b" font-weight="400">slot + publication</text>
<rect x="337" y="80.5" width="220" height="83" rx="10" fill="#cfe2f3" stroke="#3d85c6" stroke-width="2"/>
<text x="447.0" y="108.5" text-anchor="middle" font-size="15.5" font-weight="700" fill="#1e293b">Debezium (Connect :8083)</text>
<line x1="347" y1="116.5" x2="547" y2="116.5" stroke="#3d85c6" stroke-width="1" opacity="0.5"/>
<text x="350" y="136.5" font-size="13.5" fill="#1e293b" font-weight="400">Avro + Schema Registry</text>
<rect x="680" y="70.0" width="197" height="104" rx="10" fill="#ffd966" stroke="#bf9000" stroke-width="2"/>
<text x="778.5" y="98.0" text-anchor="middle" font-size="15.5" font-weight="700" fill="#1e293b">Topics CDC</text>
<line x1="690" y1="106.0" x2="867" y2="106.0" stroke="#bf9000" stroke-width="1" opacity="0.5"/>
<text x="693" y="126.0" font-size="13.5" fill="#1e293b" font-weight="400">ecommerce.public.orders</text>
<text x="693" y="147.0" font-size="13.5" fill="#1e293b" font-weight="400">order_items, customers</text>
<rect x="1000" y="70.0" width="225" height="104" rx="10" fill="#cfe2f3" stroke="#3d85c6" stroke-width="2"/>
<text x="1112.5" y="98.0" text-anchor="middle" font-size="15.5" font-weight="700" fill="#1e293b">S3 Sink connector</text>
<line x1="1010" y1="106.0" x2="1215" y2="106.0" stroke="#3d85c6" stroke-width="1" opacity="0.5"/>
<text x="1013" y="126.0" font-size="13.5" fill="#1e293b" font-weight="400">topics.regex = ecommerce.*</text>
<text x="1013" y="147.0" font-size="13.5" fill="#1e293b" font-weight="400">errors → dlq.s3-sink-bronze</text>
<rect x="1348" y="70.0" width="190" height="104" rx="10" fill="#d9ead3" stroke="#38761d" stroke-width="2"/>
<text x="1443.0" y="98.0" text-anchor="middle" font-size="15.5" font-weight="700" fill="#1e293b">MinIO :9000  bronze/</text>
<line x1="1358" y1="106.0" x2="1528" y2="106.0" stroke="#38761d" stroke-width="1" opacity="0.5"/>
<text x="1361" y="126.0" font-size="13.5" fill="#1e293b" font-weight="400">Parquet partitionné</text>
<text x="1361" y="147.0" font-size="13.5" fill="#1e293b" font-weight="400">year/month/day</text>
<line x1="214.0" y1="122.0" x2="337.0" y2="122.0" stroke="#1e293b" stroke-width="2" marker-end="url(#arrow)"/>
<rect x="260.6" y="111.5" width="29.8" height="21.0" rx="4" fill="#ffffff" opacity="0.92"/>
<text x="275.5" y="124.5" text-anchor="middle" font-size="11.5" fill="#1e293b">WAL</text>
<line x1="557.0" y1="122.0" x2="680.0" y2="122.0" stroke="#1e293b" stroke-width="2" marker-end="url(#arrow)"/>
<rect x="573.9" y="111.5" width="89.2" height="21.0" rx="4" fill="#ffffff" opacity="0.92"/>
<text x="618.5" y="124.5" text-anchor="middle" font-size="11.5" fill="#1e293b">produce Avro</text>
<line x1="877.0" y1="122.0" x2="1000.0" y2="122.0" stroke="#1e293b" stroke-width="2" marker-end="url(#arrow)"/>
<rect x="910.4" y="111.5" width="56.2" height="21.0" rx="4" fill="#ffffff" opacity="0.92"/>
<text x="938.5" y="124.5" text-anchor="middle" font-size="11.5" fill="#1e293b">consume</text>
<line x1="1225.0" y1="122.0" x2="1348.0" y2="122.0" stroke="#1e293b" stroke-width="2" marker-end="url(#arrow)"/>
<rect x="1265.0" y="111.5" width="43.0" height="21.0" rx="4" fill="#ffffff" opacity="0.92"/>
<text x="1286.5" y="124.5" text-anchor="middle" font-size="11.5" fill="#1e293b">write</text>
</svg>