<svg xmlns="http://www.w3.org/2000/svg" width="1139" height="214" viewBox="0 0 1139 214" font-family="Segoe UI, system-ui, sans-serif">
<rect x="0" y="0" width="1139" height="214" fill="#ffffff"/>
<defs><marker id="arrow" markerWidth="9" markerHeight="9" refX="7" refY="3" orient="auto" markerUnits="strokeWidth"><path d="M0,0 L7,3 L0,6 Z" fill="#1e293b"/></marker></defs>
<rect x="24" y="70.0" width="204" height="104" rx="10" fill="#cfe2f3" stroke="#3d85c6" stroke-width="2"/>
<text x="126.0" y="98.0" text-anchor="middle" font-size="15.5" font-weight="700" fill="#1e293b">Cluster Kafka</text>
<line x1="34" y1="106.0" x2="218" y2="106.0" stroke="#3d85c6" stroke-width="1" opacity="0.5"/>
<text x="37" y="126.0" font-size="13.5" fill="#1e293b" font-weight="400">kafka1 / kafka2 / kafka3</text>
<text x="37" y="147.0" font-size="13.5" fill="#1e293b" font-weight="400">MBeans JMX</text>
<rect x="348" y="70.0" width="220" height="104" rx="10" fill="#cfe2f3" stroke="#3d85c6" stroke-width="2"/>
<text x="458.0" y="98.0" text-anchor="middle" font-size="15.5" font-weight="700" fill="#1e293b">JMX Exporter (javaagent)</text>
<line x1="358" y1="106.0" x2="558" y2="106.0" stroke="#3d85c6" stroke-width="1" opacity="0.5"/>
<text x="361" y="126.0" font-size="13.5" fill="#1e293b" font-weight="400">:7071 / 7072 / 7073</text>
<text x="361" y="147.0" font-size="13.5" fill="#1e293b" font-weight="400">/metrics</text>
<rect x="688" y="80.5" width="159" height="83" rx="10" fill="#ffd966" stroke="#bf9000" stroke-width="2"/>
<text x="767.5" y="108.5" text-anchor="middle" font-size="15.5" font-weight="700" fill="#1e293b">Prometheus :9090</text>
<line x1="698" y1="116.5" x2="837" y2="116.5" stroke="#bf9000" stroke-width="1" opacity="0.5"/>
<text x="701" y="136.5" font-size="13.5" fill="#1e293b" font-weight="400">scrape 15s</text>
<rect x="967" y="80.5" width="148" height="83" rx="10" fill="#d9ead3" stroke="#38761d" stroke-width="2"/>
<text x="1041.0" y="108.5" text-anchor="middle" font-size="15.5" font-weight="700" fill="#1e293b">Grafana :13000</text>
<line x1="977" y1="116.5" x2="1105" y2="116.5" stroke="#38761d" stroke-width="1" opacity="0.5"/>
<text x="980" y="136.5" font-size="13.5" fill="#1e293b" font-weight="400">dashboards Kafka</text>
<line x1="228.0" y1="122.0" x2="348.0" y2="122.0" stroke="#1e293b" stroke-width="2" marker-end="url(#arrow)"/>
<rect x="273.1" y="111.5" width="29.8" height="21.0" rx="4" fill="#ffffff" opacity="0.92"/>
<text x="288.0" y="124.5" text-anchor="middle" font-size="11.5" fill="#1e293b">JMX</text>
<line x1="568.0" y1="122.0" x2="688.0" y2="122.0" stroke="#1e293b" stroke-width="2" marker-end="url(#arrow)"/>
<rect x="603.2" y="111.5" width="49.6" height="21.0" rx="4" fill="#ffffff" opacity="0.92"/>
<text x="628.0" y="124.5" text-anchor="middle" font-size="11.5" fill="#1e293b">scrape</text>
<line x1="847.0" y1="122.0" x2="967.0" y2="122.0" stroke="#1e293b" stroke-width="2" marker-end="url(#arrow)"/>
</svg>