<svg xmlns="http://www.w3.org/2000/svg" width="1210" height="214" viewBox="0 0 1210 214" font-family="Segoe UI, system-ui, sans-serif">
<rect x="0" y="0" width="1210" height="214" fill="#ffffff"/>
<defs><marker id="arrow" markerWidth="9" markerHeight="9" refX="7" refY="3" orient="auto" markerUnits="strokeWidth"><path d="M0,0 L7,3 L0,6 Z" fill="#1e293b"/></marker></defs>
<rect x="24" y="70.0" width="155" height="104" rx="10" fill="#cfe2f3" stroke="#3d85c6" stroke-width="2"/>
<text x="101.5" y="98.0" text-anchor="middle" font-size="15.5" font-weight="700" fill="#1e293b">Client Python</text>
<line x1="34" y1="106.0" x2="169" y2="106.0" stroke="#3d85c6" stroke-width="1" opacity="0.5"/>
<text x="37" y="126.0" font-size="13.5" fill="#1e293b" font-weight="400">confluent-kafka</text>
<text x="37" y="147.0" font-size="13.5" fill="#1e293b" font-weight="400">Produce / Consume</text>
<rect x="299" y="70.0" width="197" height="104" rx="10" fill="#cfe2f3" stroke="#3d85c6" stroke-width="2"/>
<text x="397.5" y="98.0" text-anchor="middle" font-size="15.5" font-weight="700" fill="#1e293b">SASL/SCRAM-SHA-256</text>
<line x1="309" y1="106.0" x2="486" y2="106.0" stroke="#3d85c6" stroke-width="1" opacity="0.5"/>
<text x="312" y="126.0" font-size="13.5" fill="#1e293b" font-weight="400">ApiVersions → Handshake</text>
<text x="312" y="147.0" font-size="13.5" fill="#1e293b" font-weight="400">→ SaslAuthenticate</text>
<rect x="616" y="70.0" width="183" height="104" rx="10" fill="#ffd966" stroke="#bf9000" stroke-width="2"/>
<text x="707.5" y="98.0" text-anchor="middle" font-size="15.5" font-weight="700" fill="#1e293b">Broker :19092</text>
<line x1="626" y1="106.0" x2="789" y2="106.0" stroke="#bf9000" stroke-width="1" opacity="0.5"/>
<text x="629" y="126.0" font-size="13.5" fill="#1e293b" font-weight="400">Authenticator (SCRAM)</text>
<text x="629" y="147.0" font-size="13.5" fill="#1e293b" font-weight="400">Authorizer (ACLs)</text>
<rect x="919" y="70.0" width="267" height="104" rx="10" fill="#d9ead3" stroke="#38761d" stroke-width="2"/>
<text x="1052.5" y="98.0" text-anchor="middle" font-size="15.5" font-weight="700" fill="#1e293b">Topic orders</text>
<line x1="929" y1="106.0" x2="1176" y2="106.0" stroke="#38761d" stroke-width="1" opacity="0.5"/>
<text x="932" y="126.0" font-size="13.5" fill="#1e293b" font-weight="400">WRITE autorisé</text>
<text x="932" y="147.0" font-size="13.5" fill="#1d6fb8" font-weight="600">sinon TopicAuthorizationException</text>
<line x1="179.0" y1="122.0" x2="299.0" y2="122.0" stroke="#1e293b" stroke-width="2" marker-end="url(#arrow)"/>
<rect x="204.3" y="111.5" width="69.4" height="21.0" rx="4" fill="#ffffff" opacity="0.92"/>
<text x="239.0" y="124.5" text-anchor="middle" font-size="11.5" fill="#1e293b">connexion</text>
<line x1="496.0" y1="122.0" x2="616.0" y2="122.0" stroke="#1e293b" stroke-width="2" marker-end="url(#arrow)"/>
<rect x="514.7" y="111.5" width="82.6" height="21.0" rx="4" fill="#ffffff" opacity="0.92"/>
<text x="556.0" y="124.5" text-anchor="middle" font-size="11.5" fill="#1e293b">authentifié</text>
<line x1="799.0" y1="122.0" x2="919.0" y2="122.0" stroke="#1e293b" stroke-width="2" marker-end="url(#arrow)"/>
<rect x="837.5" y="111.5" width="43.0" height="21.0" rx="4" fill="#ffffff" opacity="0.92"/>
<text x="859.0" y="124.5" text-anchor="middle" font-size="11.5" fill="#1e293b">ACL ?</text>
</svg>