<svg xmlns="http://www.w3.org/2000/svg" width="978" height="235" viewBox="0 0 978 235" font-family="Segoe UI, system-ui, sans-serif">
<rect x="0" y="0" width="978" height="235" fill="#ffffff"/>
<defs><marker id="arrow" markerWidth="9" markerHeight="9" refX="7" refY="3" orient="auto" markerUnits="strokeWidth"><path d="M0,0 L7,3 L0,6 Z" fill="#1e293b"/></marker></defs>
<rect x="24" y="70.0" width="260" height="125" rx="10" fill="#cfe2f3" stroke="#3d85c6" stroke-width="2"/>
<text x="154.0" y="98.0" text-anchor="middle" font-size="15.5" font-weight="700" fill="#1e293b">Producer Python</text>
<line x1="34" y1="106.0" x2="274" y2="106.0" stroke="#3d85c6" stroke-width="1" opacity="0.5"/>
<text x="37" y="126.0" font-size="13.5" fill="#1e293b" font-weight="400">AvroSerializer</text>
<text x="37" y="147.0" font-size="13.5" fill="#1e293b" font-weight="400">register schema → Registry :8081</text>
<text x="37" y="168.0" font-size="13.5" fill="#1e293b" font-weight="400">msg = magic byte + id + payload</text>
<rect x="420" y="91.0" width="166" height="83" rx="10" fill="#ffd966" stroke="#bf9000" stroke-width="2"/>
<text x="503.0" y="119.0" text-anchor="middle" font-size="15.5" font-weight="700" fill="#1e293b">Topic orders.avro</text>
<line x1="430" y1="127.0" x2="576" y2="127.0" stroke="#bf9000" stroke-width="1" opacity="0.5"/>
<text x="433" y="147.0" font-size="13.5" fill="#1e293b" font-weight="400">3 partitions</text>
<rect x="722" y="80.5" width="232" height="104" rx="10" fill="#d9ead3" stroke="#38761d" stroke-width="2"/>
<text x="838.0" y="108.5" text-anchor="middle" font-size="15.5" font-weight="700" fill="#1e293b">Consumer Python</text>
<line x1="732" y1="116.5" x2="944" y2="116.5" stroke="#38761d" stroke-width="1" opacity="0.5"/>
<text x="735" y="136.5" font-size="13.5" fill="#1e293b" font-weight="400">AvroDeserializer</text>
<text x="735" y="157.5" font-size="13.5" fill="#1e293b" font-weight="400">resolve schema id ← Registry</text>
<line x1="284.0" y1="132.5" x2="420.0" y2="132.5" stroke="#1e293b" stroke-width="2" marker-end="url(#arrow)"/>
<rect x="300.8" y="122.0" width="102.4" height="21.0" rx="4" fill="#ffffff" opacity="0.92"/>
<text x="352.0" y="135.0" text-anchor="middle" font-size="11.5" fill="#1e293b">produce (Avro)</text>
<line x1="586.0" y1="132.5" x2="722.0" y2="132.5" stroke="#1e293b" stroke-width="2" marker-end="url(#arrow)"/>
<rect x="625.9" y="122.0" width="56.2" height="21.0" rx="4" fill="#ffffff" opacity="0.92"/>
<text x="654.0" y="135.0" text-anchor="middle" font-size="11.5" fill="#1e293b">consume</text>
</svg>