<svg xmlns="http://www.w3.org/2000/svg" width="1401" height="214" viewBox="0 0 1401 214" font-family="Segoe UI, system-ui, sans-serif">
<rect x="0" y="0" width="1401" height="214" fill="#ffffff"/>
<defs><marker id="arrow" markerWidth="9" markerHeight="9" refX="7" refY="3" orient="auto" markerUnits="strokeWidth"><path d="M0,0 L7,3 L0,6 Z" fill="#1e293b"/></marker></defs>
<rect x="24" y="80.5" width="136" height="83" rx="10" fill="#cfe2f3" stroke="#3d85c6" stroke-width="2"/>
<text x="92.0" y="108.5" text-anchor="middle" font-size="15.5" font-weight="700" fill="#1e293b">Postgres (L4)</text>
<line x1="34" y1="116.5" x2="150" y2="116.5" stroke="#3d85c6" stroke-width="1" opacity="0.5"/>
<text x="37" y="136.5" font-size="13.5" fill="#1e293b" font-weight="400">source CDC</text>
<rect x="280" y="80.5" width="155" height="83" rx="10" fill="#cfe2f3" stroke="#3d85c6" stroke-width="2"/>
<text x="357.5" y="108.5" text-anchor="middle" font-size="15.5" font-weight="700" fill="#1e293b">Debezium CDC</text>
<line x1="290" y1="116.5" x2="425" y2="116.5" stroke="#3d85c6" stroke-width="1" opacity="0.5"/>
<text x="293" y="136.5" font-size="13.5" fill="#1e293b" font-weight="400">→ Avro + Registry</text>
<rect x="555" y="80.5" width="162" height="83" rx="10" fill="#ffd966" stroke="#bf9000" stroke-width="2"/>
<text x="636.0" y="108.5" text-anchor="middle" font-size="15.5" font-weight="700" fill="#1e293b">Kafka topics</text>
<line x1="565" y1="116.5" x2="707" y2="116.5" stroke="#bf9000" stroke-width="1" opacity="0.5"/>
<text x="568" y="136.5" font-size="13.5" fill="#1e293b" font-weight="400">ecommerce.public.*</text>
<rect x="837" y="70.0" width="251" height="104" rx="10" fill="#cfe2f3" stroke="#3d85c6" stroke-width="2"/>
<text x="962.5" y="98.0" text-anchor="middle" font-size="15.5" font-weight="700" fill="#1e293b">PySpark Structured Streaming</text>
<line x1="847" y1="106.0" x2="1078" y2="106.0" stroke="#3d85c6" stroke-width="1" opacity="0.5"/>
<text x="850" y="126.0" font-size="13.5" fill="#1e293b" font-weight="400">readStream → parse Avro</text>
<text x="850" y="147.0" font-size="13.5" fill="#1e293b" font-weight="400">+ checkpoint s3a://bronze/_chk</text>
<rect x="1208" y="80.5" width="169" height="83" rx="10" fill="#d9ead3" stroke="#38761d" stroke-width="2"/>
<text x="1292.5" y="108.5" text-anchor="middle" font-size="15.5" font-weight="700" fill="#1e293b">BRONZE (Delta)</text>
<line x1="1218" y1="116.5" x2="1367" y2="116.5" stroke="#38761d" stroke-width="1" opacity="0.5"/>
<text x="1221" y="136.5" font-size="13.5" fill="#1e293b" font-weight="400">s3a://bronze/orders</text>
<line x1="160.0" y1="122.0" x2="280.0" y2="122.0" stroke="#1e293b" stroke-width="2" marker-end="url(#arrow)"/>
<rect x="205.1" y="111.5" width="29.8" height="21.0" rx="4" fill="#ffffff" opacity="0.92"/>
<text x="220.0" y="124.5" text-anchor="middle" font-size="11.5" fill="#1e293b">WAL</text>
<line x1="435.0" y1="122.0" x2="555.0" y2="122.0" stroke="#1e293b" stroke-width="2" marker-end="url(#arrow)"/>
<rect x="466.9" y="111.5" width="56.2" height="21.0" rx="4" fill="#ffffff" opacity="0.92"/>
<text x="495.0" y="124.5" text-anchor="middle" font-size="11.5" fill="#1e293b">produce</text>
<line x1="717.0" y1="122.0" x2="837.0" y2="122.0" stroke="#1e293b" stroke-width="2" marker-end="url(#arrow)"/>
<rect x="758.8" y="111.5" width="36.4" height="21.0" rx="4" fill="#ffffff" opacity="0.92"/>
<text x="777.0" y="124.5" text-anchor="middle" font-size="11.5" fill="#1e293b">read</text>
<line x1="1088.0" y1="122.0" x2="1208.0" y2="122.0" stroke="#1e293b" stroke-width="2" marker-end="url(#arrow)"/>
<rect x="1126.5" y="111.5" width="43.0" height="21.0" rx="4" fill="#ffffff" opacity="0.92"/>
<text x="1148.0" y="124.5" text-anchor="middle" font-size="11.5" fill="#1e293b">write</text>
</svg>