<svg xmlns="http://www.w3.org/2000/svg" width="1284" height="193" viewBox="0 0 1284 193" font-family="Segoe UI, system-ui, sans-serif">
<rect x="0" y="0" width="1284" height="193" fill="#ffffff"/>
<defs><marker id="arrow" markerWidth="9" markerHeight="9" refX="7" refY="3" orient="auto" markerUnits="strokeWidth"><path d="M0,0 L7,3 L0,6 Z" fill="#1e293b"/></marker></defs>
<rect x="24" y="70.0" width="155" height="83" rx="10" fill="#ffd966" stroke="#bf9000" stroke-width="2"/>
<text x="101.5" y="98.0" text-anchor="middle" font-size="15.5" font-weight="700" fill="#1e293b">Kafka</text>
<line x1="34" y1="106.0" x2="169" y2="106.0" stroke="#bf9000" stroke-width="1" opacity="0.5"/>
<text x="37" y="126.0" font-size="13.5" fill="#1e293b" font-weight="400">flux d&#x27;événements</text>
<rect x="299" y="70.0" width="155" height="83" rx="10" fill="#d9ead3" stroke="#38761d" stroke-width="2"/>
<text x="376.5" y="98.0" text-anchor="middle" font-size="15.5" font-weight="700" fill="#1e293b">BRONZE (ce lab)</text>
<line x1="309" y1="106.0" x2="444" y2="106.0" stroke="#38761d" stroke-width="1" opacity="0.5"/>
<text x="312" y="126.0" font-size="13.5" fill="#1e293b" font-weight="400">brut, append-only</text>
<rect x="574" y="70.0" width="169" height="83" rx="10" fill="#cfe2f3" stroke="#3d85c6" stroke-width="2"/>
<text x="658.5" y="98.0" text-anchor="middle" font-size="15.5" font-weight="700" fill="#1e293b">SILVER</text>
<line x1="584" y1="106.0" x2="733" y2="106.0" stroke="#3d85c6" stroke-width="1" opacity="0.5"/>
<text x="587" y="126.0" font-size="13.5" fill="#1e293b" font-weight="400">nettoyé, dédupliqué</text>
<rect x="863" y="70.0" width="141" height="83" rx="10" fill="#ffd966" stroke="#bf9000" stroke-width="2"/>
<text x="933.5" y="98.0" text-anchor="middle" font-size="15.5" font-weight="700" fill="#1e293b">GOLD</text>
<line x1="873" y1="106.0" x2="994" y2="106.0" stroke="#bf9000" stroke-width="1" opacity="0.5"/>
<text x="876" y="126.0" font-size="13.5" fill="#1e293b" font-weight="400">agrégats métier</text>
<rect x="1124" y="70.0" width="136" height="83" rx="10" fill="#d9ead3" stroke="#38761d" stroke-width="2"/>
<text x="1192.0" y="98.0" text-anchor="middle" font-size="15.5" font-weight="700" fill="#1e293b">BI / ML / API</text>
<line x1="1134" y1="106.0" x2="1250" y2="106.0" stroke="#38761d" stroke-width="1" opacity="0.5"/>
<text x="1137" y="126.0" font-size="13.5" fill="#1e293b" font-weight="400">consommation</text>
<line x1="179.0" y1="111.5" x2="299.0" y2="111.5" stroke="#1e293b" stroke-width="2" marker-end="url(#arrow)"/>
<line x1="454.0" y1="111.5" x2="574.0" y2="111.5" stroke="#1e293b" stroke-width="2" marker-end="url(#arrow)"/>
<line x1="743.0" y1="111.5" x2="863.0" y2="111.5" stroke="#1e293b" stroke-width="2" marker-end="url(#arrow)"/>
<line x1="1004.0" y1="111.5" x2="1124.0" y2="111.5" stroke="#1e293b" stroke-width="2" marker-end="url(#arrow)"/>
</svg>