<svg xmlns="http://www.w3.org/2000/svg" width="972" height="256" viewBox="0 0 972 256" font-family="Segoe UI, system-ui, sans-serif">
<rect x="0" y="0" width="972" height="256" fill="#ffffff"/>
<defs><marker id="arrow" markerWidth="9" markerHeight="9" refX="7" refY="3" orient="auto" markerUnits="strokeWidth"><path d="M0,0 L7,3 L0,6 Z" fill="#1e293b"/></marker></defs>
<rect x="24" y="91.0" width="220" height="104" rx="10" fill="#cfe2f3" stroke="#3d85c6" stroke-width="2"/>
<text x="134.0" y="119.0" text-anchor="middle" font-size="15.5" font-weight="700" fill="#1e293b">Sources Kafka (← L4 CDC)</text>
<line x1="34" y1="127.0" x2="234" y2="127.0" stroke="#3d85c6" stroke-width="1" opacity="0.5"/>
<text x="37" y="147.0" font-size="13.5" fill="#1e293b" font-weight="400">orders, payments,</text>
<text x="37" y="168.0" font-size="13.5" fill="#1e293b" font-weight="400">customers (Avro)</text>
<rect x="364" y="70.0" width="309" height="146" rx="10" fill="#ffd966" stroke="#bf9000" stroke-width="2"/>
<text x="518.5" y="98.0" text-anchor="middle" font-size="15.5" font-weight="700" fill="#1e293b">Spark Scala 3.5</text>
<line x1="374" y1="106.0" x2="663" y2="106.0" stroke="#bf9000" stroke-width="1" opacity="0.5"/>
<text x="377" y="126.0" font-size="13.5" fill="#1e293b" font-weight="400">ReadKafkaAvro (from_avro)</text>
<text x="377" y="147.0" font-size="13.5" fill="#1e293b" font-weight="400">fenêtres tumbling / sliding + watermark</text>
<text x="377" y="168.0" font-size="13.5" fill="#1e293b" font-weight="400">joins stream-static &amp; stream-stream</text>
<text x="377" y="189.0" font-size="13.5" fill="#1e293b" font-weight="400">WriteSilver</text>
<rect x="793" y="80.5" width="155" height="125" rx="10" fill="#d9ead3" stroke="#38761d" stroke-width="2"/>
<text x="870.5" y="108.5" text-anchor="middle" font-size="15.5" font-weight="700" fill="#1e293b">SILVER (Delta)</text>
<line x1="803" y1="116.5" x2="938" y2="116.5" stroke="#38761d" stroke-width="1" opacity="0.5"/>
<text x="806" y="136.5" font-size="13.5" fill="#1e293b" font-weight="400">orders_enriched</text>
<text x="806" y="157.5" font-size="13.5" fill="#1e293b" font-weight="400">orders_revenue_1m</text>
<text x="806" y="178.5" font-size="13.5" fill="#1e293b" font-weight="400">orders_paid</text>
<line x1="244.0" y1="143.0" x2="364.0" y2="143.0" stroke="#1e293b" stroke-width="2" marker-end="url(#arrow)"/>
<rect x="285.8" y="132.5" width="36.4" height="21.0" rx="4" fill="#ffffff" opacity="0.92"/>
<text x="304.0" y="145.5" text-anchor="middle" font-size="11.5" fill="#1e293b">read</text>
<line x1="673.0" y1="143.0" x2="793.0" y2="143.0" stroke="#1e293b" stroke-width="2" marker-end="url(#arrow)"/>
<rect x="711.5" y="132.5" width="43.0" height="21.0" rx="4" fill="#ffffff" opacity="0.92"/>
<text x="733.0" y="145.5" text-anchor="middle" font-size="11.5" fill="#1e293b">write</text>
</svg>