<svg xmlns="http://www.w3.org/2000/svg" width="866" height="380" viewBox="0 0 866 380" font-family="Segoe UI, system-ui, sans-serif">
<rect width="866" height="380" fill="#ffffff"/>
<text x="433.0" y="34" text-anchor="middle" font-size="17" font-weight="700" fill="#1e293b">Fenêtres : Tumbling 1 min  vs  Sliding 5 min / 1 min</text>
<line x1="90" y1="330" x2="826" y2="330" stroke="#1e293b" stroke-width="1.5"/>
<line x1="90" y1="326" x2="90" y2="334" stroke="#1e293b" stroke-width="1.5"/>
<text x="90" y="350" text-anchor="middle" font-size="12" fill="#1e293b">10:00</text>
<line x1="182" y1="326" x2="182" y2="334" stroke="#1e293b" stroke-width="1.5"/>
<text x="182" y="350" text-anchor="middle" font-size="12" fill="#1e293b">10:01</text>
<line x1="274" y1="326" x2="274" y2="334" stroke="#1e293b" stroke-width="1.5"/>
<text x="274" y="350" text-anchor="middle" font-size="12" fill="#1e293b">10:02</text>
<line x1="366" y1="326" x2="366" y2="334" stroke="#1e293b" stroke-width="1.5"/>
<text x="366" y="350" text-anchor="middle" font-size="12" fill="#1e293b">10:03</text>
<line x1="458" y1="326" x2="458" y2="334" stroke="#1e293b" stroke-width="1.5"/>
<text x="458" y="350" text-anchor="middle" font-size="12" fill="#1e293b">10:04</text>
<line x1="550" y1="326" x2="550" y2="334" stroke="#1e293b" stroke-width="1.5"/>
<text x="550" y="350" text-anchor="middle" font-size="12" fill="#1e293b">10:05</text>
<line x1="642" y1="326" x2="642" y2="334" stroke="#1e293b" stroke-width="1.5"/>
<text x="642" y="350" text-anchor="middle" font-size="12" fill="#1e293b">10:06</text>
<line x1="734" y1="326" x2="734" y2="334" stroke="#1e293b" stroke-width="1.5"/>
<text x="734" y="350" text-anchor="middle" font-size="12" fill="#1e293b">10:07</text>
<line x1="826" y1="326" x2="826" y2="334" stroke="#1e293b" stroke-width="1.5"/>
<text x="826" y="350" text-anchor="middle" font-size="12" fill="#1e293b">10:08</text>
<text x="20" y="72" font-size="13" font-weight="700" fill="#3d85c6">Tumbling</text>
<rect x="90" y="58" width="92" height="26" rx="5" fill="#cfe2f3" stroke="#3d85c6" stroke-width="1.5" opacity="0.9"/>
<text x="136.0" y="75.0" text-anchor="middle" font-size="11.5" fill="#1e293b">W1</text>
<rect x="182" y="58" width="92" height="26" rx="5" fill="#cfe2f3" stroke="#3d85c6" stroke-width="1.5" opacity="0.9"/>
<text x="228.0" y="75.0" text-anchor="middle" font-size="11.5" fill="#1e293b">W2</text>
<rect x="274" y="58" width="92" height="26" rx="5" fill="#cfe2f3" stroke="#3d85c6" stroke-width="1.5" opacity="0.9"/>
<text x="320.0" y="75.0" text-anchor="middle" font-size="11.5" fill="#1e293b">W3</text>
<rect x="366" y="58" width="92" height="26" rx="5" fill="#cfe2f3" stroke="#3d85c6" stroke-width="1.5" opacity="0.9"/>
<text x="412.0" y="75.0" text-anchor="middle" font-size="11.5" fill="#1e293b">W4</text>
<text x="20" y="135" font-size="13" font-weight="700" fill="#38761d">Sliding</text>
<rect x="90" y="120" width="460" height="24" rx="5" fill="#d9ead3" stroke="#38761d" stroke-width="1.5" opacity="0.9"/>
<text x="320.0" y="136.0" text-anchor="middle" font-size="11.5" fill="#1e293b">W1 (10:00→10:05)</text>
<rect x="182" y="150" width="460" height="24" rx="5" fill="#d9ead3" stroke="#38761d" stroke-width="1.5" opacity="0.9"/>
<text x="412.0" y="166.0" text-anchor="middle" font-size="11.5" fill="#1e293b">W2 (10:01→10:06)</text>
<rect x="274" y="180" width="460" height="24" rx="5" fill="#d9ead3" stroke="#38761d" stroke-width="1.5" opacity="0.9"/>
<text x="504.0" y="196.0" text-anchor="middle" font-size="11.5" fill="#1e293b">W3 (10:02→10:07)</text>
<rect x="366" y="210" width="460" height="24" rx="5" fill="#d9ead3" stroke="#38761d" stroke-width="1.5" opacity="0.9"/>
<text x="596.0" y="226.0" text-anchor="middle" font-size="11.5" fill="#1e293b">W4 (10:03→10:08)</text>
</svg>