<svg xmlns="http://www.w3.org/2000/svg" width="715" height="363" viewBox="0 0 715 363" font-family="Segoe UI, system-ui, sans-serif">
<rect x="0" y="0" width="715" height="363" fill="#ffffff"/>
<defs><marker id="arrow" markerWidth="9" markerHeight="9" refX="7" refY="3" orient="auto" markerUnits="strokeWidth"><path d="M0,0 L7,3 L0,6 Z" fill="#1e293b"/></marker></defs>
<rect x="199.5" y="24" width="316" height="125" rx="10" fill="#ffd966" stroke="#bf9000" stroke-width="2"/>
<text x="357.5" y="52" text-anchor="middle" font-size="15.5" font-weight="700" fill="#1e293b">Cluster Kafka KRaft</text>
<line x1="209.5" y1="60" x2="505.5" y2="60" stroke="#bf9000" stroke-width="1" opacity="0.5"/>
<text x="212.5" y="80" font-size="13.5" fill="#1e293b" font-weight="400">Docker Compose (3 brokers)</text>
<text x="212.5" y="101" font-size="13.5" fill="#1e293b" font-weight="400">quorum Raft :29093</text>
<text x="212.5" y="122" font-size="13.5" fill="#1e293b" font-weight="400">outils : Kafka UI :18080, Registry :8081</text>
<rect x="24" y="219" width="169" height="104" rx="10" fill="#cfe2f3" stroke="#3d85c6" stroke-width="2"/>
<text x="108.5" y="247" text-anchor="middle" font-size="15.5" font-weight="700" fill="#1e293b">kafka1</text>
<line x1="34" y1="255" x2="183" y2="255" stroke="#3d85c6" stroke-width="1" opacity="0.5"/>
<text x="37" y="275" font-size="13.5" fill="#1e293b" font-weight="400">broker + controller</text>
<text x="37" y="296" font-size="13.5" fill="#1e293b" font-weight="400">client :9092</text>
<rect x="273" y="219" width="169" height="104" rx="10" fill="#cfe2f3" stroke="#3d85c6" stroke-width="2"/>
<text x="357.5" y="247" text-anchor="middle" font-size="15.5" font-weight="700" fill="#1e293b">kafka2</text>
<line x1="283" y1="255" x2="432" y2="255" stroke="#3d85c6" stroke-width="1" opacity="0.5"/>
<text x="286" y="275" font-size="13.5" fill="#1e293b" font-weight="400">broker + controller</text>
<text x="286" y="296" font-size="13.5" fill="#1e293b" font-weight="400">client :9093</text>
<rect x="522" y="219" width="169" height="104" rx="10" fill="#cfe2f3" stroke="#3d85c6" stroke-width="2"/>
<text x="606.5" y="247" text-anchor="middle" font-size="15.5" font-weight="700" fill="#1e293b">kafka3</text>
<line x1="532" y1="255" x2="681" y2="255" stroke="#3d85c6" stroke-width="1" opacity="0.5"/>
<text x="535" y="275" font-size="13.5" fill="#1e293b" font-weight="400">broker + controller</text>
<text x="535" y="296" font-size="13.5" fill="#1e293b" font-weight="400">client :9094</text>
<line x1="273.2" y1="149.0" x2="178.7" y2="219.0" stroke="#1e293b" stroke-width="2" marker-end="url(#arrow)"/>
<line x1="357.5" y1="149.0" x2="357.5" y2="219.0" stroke="#1e293b" stroke-width="2" marker-end="url(#arrow)"/>
<line x1="441.8" y1="149.0" x2="536.3" y2="219.0" stroke="#1e293b" stroke-width="2" marker-end="url(#arrow)"/>
</svg>