<svg xmlns="http://www.w3.org/2000/svg" width="865" height="235" viewBox="0 0 865 235" font-family="Segoe UI, system-ui, sans-serif">
<rect x="0" y="0" width="865" height="235" fill="#ffffff"/>
<defs><marker id="arrow" markerWidth="9" markerHeight="9" refX="7" refY="3" orient="auto" markerUnits="strokeWidth"><path d="M0,0 L7,3 L0,6 Z" fill="#1e293b"/></marker></defs>
<rect x="24" y="70.0" width="211" height="125" rx="10" fill="#cfe2f3" stroke="#3d85c6" stroke-width="2"/>
<text x="129.5" y="98.0" text-anchor="middle" font-size="15.5" font-weight="700" fill="#1e293b">Producers Scala</text>
<line x1="34" y1="106.0" x2="225" y2="106.0" stroke="#3d85c6" stroke-width="1" opacity="0.5"/>
<text x="37" y="126.0" font-size="13.5" fill="#1e293b" font-weight="400">ProducerSimple (String)</text>
<text x="37" y="147.0" font-size="13.5" fill="#1e293b" font-weight="400">ProducerAvro, ProducerFs2</text>
<text x="37" y="168.0" font-size="13.5" fill="#1e293b" font-weight="400">register → Registry :8081</text>
<rect x="355" y="70.0" width="155" height="125" rx="10" fill="#ffd966" stroke="#bf9000" stroke-width="2"/>
<text x="432.5" y="98.0" text-anchor="middle" font-size="15.5" font-weight="700" fill="#1e293b">Topics</text>
<line x1="365" y1="106.0" x2="500" y2="106.0" stroke="#bf9000" stroke-width="1" opacity="0.5"/>
<text x="368" y="126.0" font-size="13.5" fill="#1e293b" font-weight="400">orders.scala</text>
<text x="368" y="147.0" font-size="13.5" fill="#1e293b" font-weight="400">orders.scala.avro</text>
<text x="368" y="168.0" font-size="13.5" fill="#1e293b" font-weight="400">3 partitions</text>
<rect x="630" y="80.5" width="211" height="104" rx="10" fill="#d9ead3" stroke="#38761d" stroke-width="2"/>
<text x="735.5" y="108.5" text-anchor="middle" font-size="15.5" font-weight="700" fill="#1e293b">Consumers Scala</text>
<line x1="640" y1="116.5" x2="831" y2="116.5" stroke="#38761d" stroke-width="1" opacity="0.5"/>
<text x="643" y="136.5" font-size="13.5" fill="#1e293b" font-weight="400">ConsumerSimple / Fs2</text>
<text x="643" y="157.5" font-size="13.5" fill="#1e293b" font-weight="400">ConsumerAvro (resolve id)</text>
<line x1="235.0" y1="132.5" x2="355.0" y2="132.5" stroke="#1e293b" stroke-width="2" marker-end="url(#arrow)"/>
<rect x="266.9" y="122.0" width="56.2" height="21.0" rx="4" fill="#ffffff" opacity="0.92"/>
<text x="295.0" y="135.0" text-anchor="middle" font-size="11.5" fill="#1e293b">produce</text>
<line x1="510.0" y1="132.5" x2="630.0" y2="132.5" stroke="#1e293b" stroke-width="2" marker-end="url(#arrow)"/>
<rect x="541.9" y="122.0" width="56.2" height="21.0" rx="4" fill="#ffffff" opacity="0.92"/>
<text x="570.0" y="135.0" text-anchor="middle" font-size="11.5" fill="#1e293b">consume</text>
</svg>